<svg width="31" height="28" viewBox="0 0 31 28" fill="none" xmlns="http://www.w3.org/2000/svg">
<path d="M11 9.75C16.5078 9.75 21 13.4219 21 17.875C21 22.3672 16.5078 26 11 26C9.47656 26 8.07031 25.7266 6.78125 25.2578C5.84375 26.0391 3.89062 27.25 1.3125 27.25C1.15625 27.25 1.07812 27.2109 1 27.0938C0.960938 26.9766 1 26.8203 1.07812 26.7422C1.07812 26.7031 2.71875 24.9844 3.22656 22.9922C1.82031 21.5859 1 19.8281 1 17.875C1 13.4219 5.45312 9.75 11 9.75ZM6 19.125C6.66406 19.125 7.25 18.5781 7.25 17.875C7.25 17.2109 6.66406 16.625 6 16.625C5.29688 16.625 4.75 17.2109 4.75 17.875C4.75 18.5781 5.29688 19.125 6 19.125ZM11 19.125C11.6641 19.125 12.25 18.5781 12.25 17.875C12.25 17.2109 11.6641 16.625 11 16.625C10.2969 16.625 9.75 17.2109 9.75 17.875C9.75 18.5781 10.2969 19.125 11 19.125ZM16 19.125C16.6641 19.125 17.25 18.5781 17.25 17.875C17.25 17.2109 16.6641 16.625 16 16.625C15.2969 16.625 14.75 17.2109 14.75 17.875C14.75 18.5781 15.2969 19.125 16 19.125Z" fill="black"/>
<circle cx="21" cy="9" r="9" fill="#C00404"/>
<path d="M18.9927 8.77234L17.7573 8.47693L18.2031 4.51306H22.5967V5.76453H19.4761L19.2827 7.49939C19.3866 7.43852 19.5441 7.37406 19.7554 7.30603C19.9666 7.23442 20.203 7.19861 20.4644 7.19861C20.8439 7.19861 21.1805 7.25769 21.4741 7.37585C21.7677 7.49402 22.0166 7.66589 22.2207 7.89148C22.4284 8.11707 22.5859 8.39278 22.6934 8.71863C22.8008 9.04447 22.8545 9.41329 22.8545 9.82507C22.8545 10.1724 22.8008 10.5036 22.6934 10.8187C22.5859 11.1302 22.423 11.4095 22.2046 11.6566C21.9862 11.9001 21.7122 12.0917 21.3828 12.2313C21.0534 12.371 20.6631 12.4408 20.2119 12.4408C19.8753 12.4408 19.5495 12.3907 19.2344 12.2904C18.9229 12.1901 18.6418 12.0415 18.3911 11.8446C18.144 11.6477 17.9453 11.4095 17.7949 11.1302C17.6481 10.8474 17.5711 10.5251 17.564 10.1635H19.1001C19.1216 10.3855 19.1789 10.577 19.272 10.7382C19.3687 10.8957 19.4958 11.0175 19.6533 11.1034C19.8109 11.1893 19.9953 11.2323 20.2065 11.2323C20.4035 11.2323 20.5718 11.1947 20.7114 11.1195C20.8511 11.0443 20.9639 10.9405 21.0498 10.808C21.1357 10.6719 21.1984 10.5144 21.2378 10.3353C21.2808 10.1527 21.3022 9.95577 21.3022 9.74451C21.3022 9.53324 21.2772 9.34167 21.2271 9.1698C21.1769 8.99792 21.0999 8.84932 20.9961 8.724C20.8923 8.59867 20.7598 8.50199 20.5986 8.43396C20.4411 8.36593 20.2567 8.33191 20.0454 8.33191C19.759 8.33191 19.5369 8.37667 19.3794 8.46619C19.2254 8.5557 19.0965 8.65776 18.9927 8.77234Z" fill="white"/>
</svg>
